<svg id="visual" viewBox="0 0 900 300" width="900" height="300" xmlns="http://www.w3.org/2000/svg" xmlns:xlink="http://www.w3.org/1999/xlink" version="1.1"><path d="M0 184L10.7 180.7C21.3 177.3 42.7 170.7 64.2 165.3C85.7 160 107.3 156 128.8 157.2C150.3 158.3 171.7 164.7 193 167.7C214.3 170.7 235.7 170.3 257 172.8C278.3 175.3 299.7 180.7 321.2 181.7C342.7 182.7 364.3 179.3 385.8 172.5C407.3 165.7 428.7 155.3 450 158C471.3 160.7 492.7 176.3 514.2 184.7C535.7 193 557.3 194 578.8 194.7C600.3 195.3 621.7 195.7 643 186.5C664.3 177.3 685.7 158.7 707 149C728.3 139.3 749.7 138.7 771.2 147.8C792.7 157 814.3 176 835.8 182.2C857.3 188.3 878.7 181.7 889.3 178.3L900 175L900 301L889.3 301C878.7 301 857.3 301 835.8 301C814.3 301 792.7 301 771.2 301C749.7 301 728.3 301 707 301C685.7 301 664.3 301 643 301C621.7 301 600.3 301 578.8 301C557.3 301 535.7 301 514.2 301C492.7 301 471.3 301 450 301C428.7 301 407.3 301 385.8 301C364.3 301 342.7 301 321.2 301C299.7 301 278.3 301 257 301C235.7 301 214.3 301 193 301C171.7 301 150.3 301 128.8 301C107.3 301 85.7 301 64.2 301C42.7 301 21.3 301 10.7 301L0 301Z" fill="#fdd6bd"></path><path d="M0 171L10.7 179.3C21.3 187.7 42.7 204.3 64.2 207.8C85.7 211.3 107.3 201.7 128.8 200.3C150.3 199 171.7 206 193 204.3C214.3 202.7 235.7 192.3 257 184.7C278.3 177 299.7 172 321.2 171.2C342.7 170.3 364.3 173.7 385.8 180.3C407.3 187 428.7 197 450 199.8C471.3 202.7 492.7 198.3 514.2 199C535.7 199.7 557.3 205.3 578.8 205C600.3 204.7 621.7 198.3 643 199.8C664.3 201.3 685.7 210.7 707 207C728.3 203.3 749.7 186.7 771.2 181.2C792.7 175.7 814.3 181.3 835.8 188C857.3 194.7 878.7 202.3 889.3 206.2L900 210L900 301L889.3 301C878.7 301 857.3 301 835.8 301C814.3 301 792.7 301 771.2 301C749.7 301 728.3 301 707 301C685.7 301 664.3 301 643 301C621.7 301 600.3 301 578.8 301C557.3 301 535.7 301 514.2 301C492.7 301 471.3 301 450 301C428.7 301 407.3 301 385.8 301C364.3 301 342.7 301 321.2 301C299.7 301 278.3 301 257 301C235.7 301 214.3 301 193 301C171.7 301 150.3 301 128.8 301C107.3 301 85.7 301 64.2 301C42.7 301 21.3 301 10.7 301L0 301Z" fill="#fdc6b0"></path><path d="M0 206L10.7 209.5C21.3 213 42.7 220 64.2 217.8C85.7 215.7 107.3 204.3 128.8 206.3C150.3 208.3 171.7 223.7 193 230.8C214.3 238 235.7 237 257 234.3C278.3 231.7 299.7 227.3 321.2 223.8C342.7 220.3 364.3 217.7 385.8 215.5C407.3 213.3 428.7 211.7 450 210.8C471.3 210 492.7 210 514.2 212.8C535.7 215.7 557.3 221.3 578.8 220.2C600.3 219 621.7 211 643 212C664.3 213 685.7 223 707 224.3C728.3 225.7 749.7 218.3 771.2 216.8C792.7 215.3 814.3 219.7 835.8 222.8C857.3 226 878.7 228 889.3 229L900 230L900 301L889.3 301C878.7 301 857.3 301 835.8 301C814.3 301 792.7 301 771.2 301C749.7 301 728.3 301 707 301C685.7 301 664.3 301 643 301C621.7 301 600.3 301 578.8 301C557.3 301 535.7 301 514.2 301C492.7 301 471.3 301 450 301C428.7 301 407.3 301 385.8 301C364.3 301 342.7 301 321.2 301C299.7 301 278.3 301 257 301C235.7 301 214.3 301 193 301C171.7 301 150.3 301 128.8 301C107.3 301 85.7 301 64.2 301C42.7 301 21.3 301 10.7 301L0 301Z" fill="#fdb5a7"></path><path d="M0 234L10.7 235.7C21.3 237.3 42.7 240.7 64.2 243.5C85.7 246.3 107.3 248.7 128.8 251.8C150.3 255 171.7 259 193 258.3C214.3 257.7 235.7 252.3 257 249.8C278.3 247.3 299.7 247.7 321.2 246C342.7 244.3 364.3 240.7 385.8 240.5C407.3 240.3 428.7 243.7 450 241.8C471.3 240 492.7 233 514.2 232.5C535.7 232 557.3 238 578.8 241C600.3 244 621.7 244 643 242.8C664.3 241.7 685.7 239.3 707 241.5C728.3 243.7 749.7 250.3 771.2 252C792.7 253.7 814.3 250.3 835.8 250C857.3 249.7 878.7 252.3 889.3 253.7L900 255L900 301L889.3 301C878.7 301 857.3 301 835.8 301C814.3 301 792.7 301 771.2 301C749.7 301 728.3 301 707 301C685.7 301 664.3 301 643 301C621.7 301 600.3 301 578.8 301C557.3 301 535.7 301 514.2 301C492.7 301 471.3 301 450 301C428.7 301 407.3 301 385.8 301C364.3 301 342.7 301 321.2 301C299.7 301 278.3 301 257 301C235.7 301 214.3 301 193 301C171.7 301 150.3 301 128.8 301C107.3 301 85.7 301 64.2 301C42.7 301 21.3 301 10.7 301L0 301Z" fill="#fba4a3"></path><path d="M0 269L10.7 268.7C21.3 268.3 42.7 267.7 64.2 268.2C85.7 268.7 107.3 270.3 128.8 269C150.3 267.7 171.7 263.3 193 266.3C214.3 269.3 235.7 279.7 257 280.5C278.3 281.3 299.7 272.7 321.2 269.2C342.7 265.7 364.3 267.3 385.8 270.2C407.3 273 428.7 277 450 277C471.3 277 492.7 273 514.2 271.2C535.7 269.3 557.3 269.7 578.8 272.8C600.3 276 621.7 282 643 280.3C664.3 278.7 685.7 269.3 707 262.7C728.3 256 749.7 252 771.2 251C792.7 250 814.3 252 835.8 257.5C857.3 263 878.7 272 889.3 276.5L900 281L900 301L889.3 301C878.7 301 857.3 301 835.8 301C814.3 301 792.7 301 771.2 301C749.7 301 728.3 301 707 301C685.7 301 664.3 301 643 301C621.7 301 600.3 301 578.8 301C557.3 301 535.7 301 514.2 301C492.7 301 471.3 301 450 301C428.7 301 407.3 301 385.8 301C364.3 301 342.7 301 321.2 301C299.7 301 278.3 301 257 301C235.7 301 214.3 301 193 301C171.7 301 150.3 301 128.8 301C107.3 301 85.7 301 64.2 301C42.7 301 21.3 301 10.7 301L0 301Z" fill="#f794a4"></path></svg>