<svg id="visual" viewBox="0 0 900 300" width="900" height="300" xmlns="http://www.w3.org/2000/svg" xmlns:xlink="http://www.w3.org/1999/xlink" version="1.1"><path d="M0 118L25 125.2C50 132.3 100 146.7 150 147.5C200 148.3 250 135.7 300 124.5C350 113.3 400 103.7 450 110.8C500 118 550 142 600 147.7C650 153.3 700 140.7 750 122.7C800 104.7 850 81.3 875 69.7L900 58L900 0L875 0C850 0 800 0 750 0C700 0 650 0 600 0C550 0 500 0 450 0C400 0 350 0 300 0C250 0 200 0 150 0C100 0 50 0 25 0L0 0Z" fill="#ff719a" stroke-linecap="round" stroke-linejoin="miter"></path></svg>